<?xml version="1.0" encoding="UTF-8" standalone="no"?>
<!DOCTYPE svg PUBLIC "-//W3C//DTD SVG 1.1//EN" "http://www.w3.org/Graphics/SVG/1.1/DTD/svg11.dtd">
<svg xmlns="http://www.w3.org/2000/svg" version="1.1" viewBox="0 0 569 159" width="569.0pt" height="159.0pt">
<path d="M 0.00 0.00 L 569.00 0.00 L 569.00 159.00 L 0.00 159.00 L 0.00 0.00 Z" fill="#ffffff" />
<path d="M 11.00 10.00 C 177.20 10.00 343.39 10.00 509.59 10.00 C 510.16 10.59 510.74 11.18 511.31 11.76 C 513.13 12.14 514.78 12.86 516.44 13.67 C 518.41 14.73 520.42 15.70 522.43 16.68 C 523.82 17.52 525.16 18.44 526.54 19.30 C 527.85 20.39 529.14 21.47 530.62 22.32 C 534.26 25.89 538.53 29.31 541.34 33.58 C 542.13 34.53 542.93 35.47 543.72 36.41 C 545.89 39.64 547.58 43.10 549.33 46.57 C 550.11 48.18 550.78 49.82 551.37 51.51 C 551.72 52.50 552.05 53.50 552.37 54.49 C 552.74 55.80 553.03 57.12 553.34 58.44 C 553.70 59.76 554.02 61.09 554.36 62.42 C 555.65 66.31 554.76 70.93 555.00 75.00 C 554.76 79.07 555.65 83.69 554.36 87.58 C 554.02 88.91 553.70 90.24 553.34 91.57 C 553.03 92.88 552.74 94.20 552.37 95.51 C 552.05 96.50 551.72 97.50 551.37 98.49 C 550.78 100.18 550.11 101.82 549.33 103.43 C 547.58 106.90 545.89 110.36 543.72 113.59 C 542.92 114.53 542.13 115.47 541.34 116.42 C 539.88 118.96 537.79 120.70 535.76 122.76 C 533.70 124.79 531.96 126.88 529.42 128.34 C 528.47 129.13 527.53 129.93 526.59 130.72 C 523.70 132.63 520.69 134.21 517.60 135.75 C 515.61 136.74 513.60 137.66 511.49 138.37 C 510.50 138.71 509.50 139.05 508.51 139.38 C 507.20 139.74 505.88 140.03 504.56 140.34 C 503.24 140.70 501.91 141.02 500.58 141.36 C 496.69 142.65 492.07 141.76 488.00 142.00 C 483.93 141.76 479.31 142.65 475.42 141.36 C 474.09 141.02 472.76 140.70 471.43 140.34 C 470.12 140.03 468.80 139.74 467.49 139.37 C 466.50 139.05 465.50 138.72 464.51 138.37 C 462.82 137.78 461.18 137.11 459.57 136.33 C 457.58 135.28 455.58 134.28 453.55 133.34 C 452.14 132.45 450.79 131.46 449.44 130.49 C 446.14 129.67 442.41 130.06 439.00 130.00 C 306.00 130.00 173.00 129.99 40.00 130.00 C 36.92 129.93 33.42 130.38 30.48 129.42 C 29.49 129.06 28.51 128.69 27.53 128.31 C 26.54 127.99 25.55 127.69 24.55 127.39 C 23.16 126.49 21.82 125.53 20.35 124.74 C 18.94 123.42 17.58 122.06 16.26 120.65 C 15.47 119.18 14.51 117.84 13.61 116.45 C 13.31 115.45 13.01 114.46 12.69 113.47 C 12.31 112.49 11.94 111.51 11.58 110.52 C 11.22 109.35 11.02 108.19 10.99 107.02 C 11.01 74.68 11.00 42.34 11.00 10.00 Z" fill="#000000" />
<path d="M 28.20 23.01 C 39.80 23.00 51.40 22.98 63.00 23.02 C 69.06 23.00 75.01 23.95 80.56 26.45 C 86.56 29.13 91.34 34.21 93.37 40.49 C 95.39 46.57 95.50 53.81 94.11 60.03 C 91.70 67.19 87.59 73.13 81.10 77.14 C 71.43 83.33 59.76 83.01 48.71 83.00 C 48.76 89.67 48.58 96.35 48.83 103.01 C 48.99 106.67 48.98 110.33 48.96 114.00 C 42.04 114.00 35.12 114.01 28.20 113.99 C 28.21 83.66 28.21 53.34 28.20 23.01 Z" fill="#0073ff" />
<path d="M 100.53 23.00 C 112.60 23.01 124.68 22.98 136.76 23.01 C 136.75 28.34 136.75 33.66 136.76 38.98 C 134.17 38.99 131.58 39.00 128.99 39.01 C 128.97 41.67 128.94 44.33 128.83 46.99 C 128.55 63.99 128.78 81.00 128.71 97.99 C 131.22 98.00 133.72 98.00 136.22 98.00 C 136.33 99.35 136.43 100.69 136.54 102.04 C 136.85 106.04 136.77 109.98 136.75 113.99 C 124.68 114.02 112.60 113.99 100.53 114.00 C 100.51 108.67 100.51 103.33 100.53 98.00 C 103.08 98.00 105.64 98.00 108.20 98.00 C 108.21 78.33 108.21 58.67 108.20 39.00 C 105.64 39.00 103.08 39.00 100.53 39.00 C 100.51 33.67 100.51 28.33 100.53 23.00 Z" fill="#0073ff" />
<path d="M 149.20 23.01 C 156.12 22.99 163.04 23.00 169.96 23.00 C 170.00 37.13 169.87 51.26 170.03 65.39 C 178.51 50.92 188.56 37.38 197.42 23.14 C 205.82 22.85 214.24 23.05 222.64 23.02 C 216.61 30.93 211.07 39.24 204.84 46.98 C 199.70 53.15 195.31 59.95 190.39 66.31 C 195.91 74.19 201.65 81.91 207.26 89.73 C 210.30 93.83 213.14 98.15 216.43 102.04 C 219.17 105.24 221.42 108.79 224.11 112.03 C 225.32 108.68 226.50 105.33 227.98 102.09 C 231.83 92.72 234.98 83.05 238.55 73.57 C 240.38 68.18 242.79 62.91 244.09 57.38 C 248.07 45.89 252.47 34.55 256.45 23.06 C 264.78 22.98 273.12 22.92 281.44 23.10 C 283.96 31.12 287.25 38.90 289.63 46.97 C 293.77 60.04 298.77 72.86 303.23 85.83 C 305.37 91.54 307.13 97.42 309.55 103.02 C 311.15 106.61 312.36 110.31 313.69 114.01 C 306.09 113.99 298.49 114.01 290.88 113.99 C 289.69 110.37 288.46 106.76 287.55 103.05 C 286.81 100.00 285.85 97.01 284.84 94.03 C 277.56 93.96 270.28 94.02 263.00 93.99 C 259.46 93.98 255.92 93.99 252.39 94.10 C 250.38 100.76 248.18 107.36 246.07 113.99 C 230.36 114.01 214.64 113.98 198.93 114.01 C 196.26 109.97 193.46 106.22 191.11 102.00 C 190.18 100.34 189.13 98.80 187.96 97.30 C 184.92 93.47 182.44 89.39 179.68 85.36 C 176.32 80.22 172.63 75.46 170.04 69.85 C 169.86 84.57 170.01 99.28 169.96 114.00 C 163.04 114.00 156.12 114.01 149.21 113.99 C 149.17 110.00 149.12 106.02 149.43 102.04 C 149.89 91.38 149.51 80.67 149.63 70.00 C 149.53 62.33 149.87 54.62 149.43 46.96 C 148.94 39.00 149.33 30.99 149.20 23.01 Z" fill="#0073ff" />
<path d="M 303.81 23.00 C 328.08 23.01 352.35 22.97 376.62 23.03 C 376.60 28.68 376.60 34.32 376.62 39.97 C 367.98 40.03 359.35 39.99 350.71 40.00 C 350.65 42.32 350.57 44.64 350.41 46.95 C 349.95 60.61 350.33 74.33 350.21 88.00 C 350.25 93.00 350.05 98.08 350.41 103.05 C 350.70 106.69 350.68 110.33 350.65 113.98 C 343.61 114.02 336.57 113.99 329.53 114.00 C 329.52 89.35 329.49 64.69 329.54 40.04 C 320.96 39.95 312.39 40.03 303.81 40.00 C 303.80 34.33 303.80 28.67 303.81 23.00 Z" fill="#0073ff" />
<path d="M 384.20 23.01 C 401.79 22.99 419.37 23.00 436.96 23.00 C 436.96 28.67 436.96 34.33 436.96 40.00 C 426.29 40.01 415.63 39.99 404.96 40.01 C 404.96 46.67 404.96 53.33 404.96 59.99 C 414.93 60.01 424.89 59.98 434.85 60.01 C 434.84 65.67 434.84 71.33 434.85 76.99 C 424.89 77.02 414.93 76.99 404.96 77.01 C 404.96 83.67 404.96 90.33 404.96 96.99 C 416.31 97.01 427.65 96.99 439.00 97.00 C 439.00 102.67 439.00 108.33 439.00 114.00 C 420.73 114.00 402.47 114.01 384.20 113.99 C 384.17 110.33 384.14 106.68 384.43 103.04 C 384.90 92.05 384.51 81.00 384.63 70.00 C 384.53 62.33 384.87 54.62 384.43 46.96 C 383.94 39.00 384.33 30.99 384.20 23.01 Z" fill="#0073ff" />
<path d="M 476.55 23.21 C 484.79 22.74 493.17 23.04 501.44 23.10 C 502.97 27.96 504.87 32.68 506.32 37.57 C 510.03 49.59 514.67 61.34 518.75 73.24 C 521.31 80.06 523.38 87.10 526.34 93.75 C 529.03 100.41 531.17 107.28 533.70 114.00 C 526.07 114.00 518.45 114.00 510.82 114.01 C 510.56 112.88 510.29 111.75 510.02 110.62 C 508.60 105.01 506.56 99.56 504.83 94.04 C 493.94 94.02 483.03 93.90 472.14 94.08 C 470.24 99.53 468.38 105.07 466.94 110.65 C 466.67 111.77 466.40 112.89 466.14 114.01 C 458.56 113.99 450.98 114.00 443.40 114.00 C 445.98 107.30 448.11 100.40 450.97 93.82 C 456.26 80.64 460.76 67.11 465.75 53.81 C 467.70 48.21 469.99 42.71 471.64 37.03 C 473.09 32.37 474.66 27.70 476.55 23.21 Z" fill="#0073ff" />
<path d="M 471.64 37.03 C 469.99 42.71 467.70 48.21 465.75 53.81 C 460.76 67.11 456.26 80.64 450.97 93.82 C 450.23 92.02 449.51 90.22 448.67 88.46 C 448.28 87.17 447.98 85.87 447.64 84.57 C 446.54 81.67 447.11 78.08 446.99 75.00 C 447.11 71.92 446.55 68.34 447.63 65.43 C 447.98 64.14 448.30 62.85 448.69 61.58 C 449.28 60.24 449.85 58.90 450.33 57.53 C 451.18 56.24 451.97 54.93 452.69 53.57 C 453.57 52.15 454.60 50.84 455.63 49.52 C 457.47 46.68 459.67 44.47 462.52 42.63 C 464.06 41.38 465.61 40.20 467.36 39.25 C 468.82 38.57 470.25 37.84 471.64 37.03 Z" fill="#ffffff" />
<path d="M 506.32 37.57 C 507.41 38.14 508.50 38.71 509.60 39.27 C 511.79 40.37 513.55 42.01 515.60 43.31 C 517.79 45.14 519.84 47.09 521.38 49.52 C 522.40 50.84 523.43 52.15 524.31 53.57 C 525.03 54.94 525.82 56.24 526.67 57.53 C 527.15 58.90 527.72 60.24 528.31 61.58 C 528.70 62.85 529.02 64.14 529.37 65.43 C 530.45 68.34 529.89 71.92 530.01 75.00 C 529.86 78.06 530.51 81.70 529.32 84.56 C 529.04 85.87 528.79 87.18 528.42 88.46 C 528.02 89.11 527.63 89.75 527.23 90.39 C 526.94 91.52 526.65 92.64 526.34 93.75 C 523.38 87.10 521.31 80.06 518.75 73.24 C 514.67 61.34 510.03 49.59 506.32 37.57 Z" fill="#ffffff" />
<path d="M 49.00 38.99 C 54.12 38.98 59.78 38.84 64.72 40.28 C 67.92 41.19 70.05 43.39 72.07 45.90 C 64.33 46.11 56.58 45.96 48.83 45.99 C 48.92 43.66 48.97 41.33 49.00 38.99 Z" fill="#000000" />
<path d="M 268.42 38.80 C 268.79 41.60 269.09 44.30 270.08 46.96 C 268.89 46.96 267.70 46.96 266.52 46.96 C 267.49 44.31 268.04 41.58 268.42 38.80 Z" fill="#000000" />
<path d="M 488.44 38.53 C 489.20 42.06 489.79 45.56 490.89 49.01 C 493.98 58.65 497.06 68.30 500.10 77.96 C 492.21 78.05 484.33 77.98 476.44 78.00 C 480.46 64.86 485.27 51.89 488.44 38.53 Z" fill="#ffffff" />
<path d="M 48.83 45.99 C 56.58 45.96 64.33 46.11 72.07 45.90 C 74.68 51.41 74.08 60.00 68.97 63.95 C 63.50 68.26 55.29 66.72 48.71 66.99 C 48.76 59.99 48.58 52.99 48.83 45.99 Z" fill="#ffffff" />
<path d="M 128.83 46.99 C 135.70 46.99 142.57 47.04 149.43 46.96 C 149.87 54.62 149.53 62.33 149.63 70.00 C 149.51 80.67 149.89 91.38 149.43 102.04 C 145.14 101.98 140.84 101.98 136.54 102.04 C 136.43 100.69 136.33 99.35 136.22 98.00 C 133.72 98.00 131.22 98.00 128.71 97.99 C 128.78 81.00 128.55 63.99 128.83 46.99 Z" fill="#ffffff" />
<path d="M 204.84 46.98 C 217.90 47.01 230.94 47.00 244.00 47.00 C 243.98 50.46 244.02 53.92 244.09 57.38 C 242.79 62.91 240.38 68.18 238.55 73.57 C 234.98 83.05 231.83 92.72 227.98 102.09 C 224.13 101.97 220.28 101.98 216.43 102.04 C 213.14 98.15 210.30 93.83 207.26 89.73 C 201.65 81.91 195.91 74.19 190.39 66.31 C 195.31 59.95 199.70 53.15 204.84 46.98 Z" fill="#ffffff" />
<path d="M 266.52 46.96 C 267.70 46.96 268.89 46.96 270.08 46.96 C 273.72 57.18 276.75 67.64 280.10 77.96 C 274.40 78.03 268.70 77.99 263.00 78.00 C 262.98 71.57 263.05 65.15 262.92 58.72 C 263.69 54.66 265.07 50.81 266.52 46.96 Z" fill="#ffffff" />
<path d="M 289.63 46.97 C 299.42 47.04 309.21 46.98 319.00 47.00 C 319.00 65.67 319.00 84.33 319.00 103.00 C 315.85 103.00 312.70 103.00 309.55 103.02 C 307.13 97.42 305.37 91.54 303.23 85.83 C 298.77 72.86 293.77 60.04 289.63 46.97 Z" fill="#ffffff" />
<path d="M 350.41 46.95 C 361.75 47.04 373.09 47.02 384.43 46.96 C 384.87 54.62 384.53 62.33 384.63 70.00 C 384.51 81.00 384.90 92.05 384.43 103.04 C 373.10 102.98 361.75 102.96 350.41 103.05 C 350.05 98.08 350.25 93.00 350.21 88.00 C 350.33 74.33 349.95 60.61 350.41 46.95 Z" fill="#ffffff" />
<path d="M 262.92 58.72 C 263.05 65.15 262.98 71.57 263.00 78.00 C 260.94 78.00 258.88 78.00 256.82 78.00 C 258.89 71.59 261.03 65.19 262.92 58.72 Z" fill="#000000" />
<path d="M 94.11 60.03 C 93.84 74.33 94.08 88.68 94.00 103.00 C 78.94 103.01 63.89 102.99 48.83 103.01 C 48.58 96.35 48.76 89.67 48.71 83.00 C 59.76 83.01 71.43 83.33 81.10 77.14 C 87.59 73.13 91.70 67.19 94.11 60.03 Z" fill="#ffffff" />
<path d="M 263.00 93.99 C 270.28 94.02 277.56 93.96 284.84 94.03 C 285.85 97.01 286.81 100.00 287.55 103.05 C 279.37 102.94 271.18 103.03 263.00 103.00 C 263.00 100.00 263.00 97.00 263.00 93.99 Z" fill="#ffffff" />
<path d="M 472.14 94.08 C 483.03 93.90 493.94 94.02 504.83 94.04 C 506.56 99.56 508.60 105.01 510.02 110.62 C 508.52 111.29 507.04 112.00 505.58 112.77 C 504.23 113.33 502.87 113.87 501.48 114.35 C 500.50 114.70 499.51 115.06 498.52 115.41 C 495.26 116.46 491.41 115.87 488.00 116.00 C 484.92 115.92 481.40 116.40 478.48 115.40 C 477.49 115.06 476.50 114.72 475.51 114.37 C 473.81 113.79 472.16 113.11 470.57 112.28 C 469.36 111.73 468.16 111.18 466.94 110.65 C 468.38 105.07 470.24 99.53 472.14 94.08 Z" fill="#ffffff" />
<path d="M 187.96 97.30 C 189.13 98.80 190.18 100.34 191.11 102.00 C 190.08 102.00 189.05 102.00 188.02 102.00 C 188.00 100.43 187.98 98.87 187.96 97.30 Z" fill="#ffffff" />
<path d="M 216.43 102.04 C 220.28 101.98 224.13 101.97 227.98 102.09 C 226.50 105.33 225.32 108.68 224.11 112.03 C 221.42 108.79 219.17 105.24 216.43 102.04 Z" fill="#000000" />
</svg>